# xmcd
#
# Track frame offsets: 
#        150
#        10417
#        21659
#        32085
#        43790
#        56175
#        72018
#        93225
#        125596
#        135923
#        152103
#        175806
#        188614
#        201611
#        224494
#        240869
#        258291
#        270888
#        283949
#        297882
#
# Disc length: 4302 seconds
#
# Revision: 0
# Processed by: cddbd v1.5.2PL0 Copyright (c) Steve Scherf et al.
# Submitted via: ExactAudioCopy v0.99pb4
#
DISCID=2810cc14
DTITLE=Various Artist - Best of the blues
DYEAR=1900
DGENRE=
TTITLE0=Dimples
TTITLE1=Spoonful
TTITLE2=Got To Hurry
TTITLE3=Ray Charles Blues
TTITLE4=Shaggy Dog
TTITLE5=Self Destruction Blues
TTITLE6=Women Lovin' Each Other
TTITLE7=Whiskey Headed Woman
TTITLE8=Rollin' And Tumblin'
TTITLE9=Song For Frank
TTITLE10=Ain't Nobody's Business
TTITLE11=Baby Please Don't Go
TTITLE12=Only Fools Have Fun
TTITLE13=I'll Be Gone
TTITLE14=Cold And Lonesome
TTITLE15=Blues Before Sunrise
TTITLE16=Rock'N Roll People
TTITLE17=Worried About You
TTITLE18=Draggin' My Tail
TTITLE19=Don't Fool With Me
EXTD=
EXTT0=
EXTT1=
EXTT2=
EXTT3=
EXTT4=
EXTT5=
EXTT6=
EXTT7=
EXTT8=
EXTT9=
EXTT10=
EXTT11=
EXTT12=
EXTT13=
EXTT14=
EXTT15=
EXTT16=
EXTT17=
EXTT18=
EXTT19=
PLAYORDER=
